<?xml version="1.0" encoding="utf-8"?>
<!-- Generator: Adobe Illustrator 24.0.1, SVG Export Plug-In . SVG Version: 6.00 Build 0)  -->
<svg version="1.1" id="Layer_1" xmlns="http://www.w3.org/2000/svg" xmlns:xlink="http://www.w3.org/1999/xlink" x="0px" y="0px"
	 viewBox="0 0 408.5 182.2" style="enable-background:new 0 0 408.5 182.2;" xml:space="preserve">
<style type="text/css">
	.st0{fill:#695D4F;}
</style>
<g>
	<path class="st0" d="M143.2,22.9c-0.3,0.8-0.5,1.3-0.6,1.7c-12.6,31.6-25.3,63.2-37.9,94.7c-0.6,1.4-1.3,1.9-2.8,1.9
		c-8.7-0.1-17.4,0-26,0c-0.5,0-1.1,0-2,0c3.2-9,6.4-17.7,9.6-26.6c-0.7,0-1.2-0.1-1.7-0.1c-8.2,0-16.3,0-24.5,0
		c-1.2,0-1.7,0.5-2.1,1.5c-7.4,19.1-14.9,38.3-22.3,57.4c-0.4,1.1-0.9,1.5-2.1,1.5c-8.9-0.1-17.7,0-26.6,0c-0.5,0-0.9,0-1.6,0
		c0.2-0.7,0.3-1.2,0.5-1.7c10.8-27,21.6-53.9,32.4-80.9c0.5-1.2,1.2-1.6,2.5-1.6c18.1,0,36.3,0,54.4,0.1c1.2,0,1.7-0.4,2.2-1.5
		c6-14.9,12-29.7,17.9-44.6c0.5-1.3,1.1-1.8,2.6-1.8c8.7,0.1,17.4,0,26.2,0C141.8,22.9,142.4,22.9,143.2,22.9z"/>
	<path class="st0" d="M184.1,105.7c-1.4,3.5-2.7,6.7-4,9.9c-1.1,2.6-2.2,5.2-3.2,7.9c-0.4,1-0.9,1.4-2.1,1.4c-12.6,0-25.2,0-37.8,0
		c-2.6,0-5.2,0.1-7.7-0.3c-4.1-0.7-9.9-5.2-10.5-11.2c-0.9-7.4,0.9-14.1,3.6-20.8c2.8-6.8,5.5-13.7,8.6-20.4
		c5-10.9,13.3-17.8,25.1-20.6c2.1-0.5,4.3-0.7,6.5-0.7c8.7-0.1,17.4-0.1,26.2,0c8,0.1,14.3,5.2,13.9,13.8
		c-0.4,11.7-5.5,21-15.4,27.4c-5.4,3.5-11.2,5.2-17.7,5.1c-7.7-0.1-15.5,0-23.2,0c-2.2,0-3.2,0.6-3.9,2.3c-0.7,1.6-0.2,3.7,1,4.9
		c1,1,2.3,1.3,3.7,1.3c11.6,0,23.2,0,34.8,0C182.6,105.7,183.2,105.7,184.1,105.7z M151,78.5c0.3,0,0.5,0.1,0.6,0.1
		c6.7-0.1,13.4-0.2,20.1-0.4c3.5-0.1,5.2-1.5,6.4-5c0.7-2.1-0.9-4.3-3.1-4.3c-5.2,0-10.3-0.1-15.5,0C154.9,69,150.6,73.9,151,78.5z"
		/>
	<path class="st0" d="M331,125.6c1-2.5,2-4.8,2.9-7.2c5.6-13.6,11.2-27.3,17-40.9c1.4-3.4-1.5-7.8-5-7.6c-3.4,0.2-6.8,0-10.2,0
		c-3.2,0-6.1,2-7.2,4.9c-5,13-9.9,26.1-14.9,39.1c-1.4,3.6-2.7,7.1-4.1,10.7c-0.3,0.7-0.5,1.1-1.4,1.1c-7,0-14.1,0-21.1,0
		c-0.2,0-0.4-0.1-0.8-0.1c0.8-2.2,1.7-4.4,2.5-6.6c6.1-16.1,12.1-32.1,18.3-48.1c1.7-4.4,4.7-8,8.4-11c5.5-4.4,11.5-7.8,18.6-8.7
		c1.4-0.2,2.9-0.4,4.3-0.4c6.3,0,12.7-0.1,19,0c2.5,0,5.1,0.3,7.6,0.9c5.4,1.1,9.9,6.7,10.1,12.3c0.1,2.1,0,4.2,0,6.3
		c0,0.8-0.2,1.6-0.5,2.3c-6.3,17.3-12.6,34.6-18.9,51.9c-0.3,0.7-0.5,1.2-1.4,1.2c-7.5,0-15,0-22.5,0
		C331.6,125.7,331.4,125.7,331,125.6z"/>
	<path class="st0" d="M229.7,51.2c-0.8,14.2-1.6,28.3-2.4,42.4c0.1,0,0.2,0.1,0.3,0.1c0.4-0.6,0.7-1.1,1.1-1.7
		c7.9-13.1,15.8-26.2,23.7-39.3c0.6-1,1.3-1.5,2.5-1.4c7.6,0.1,15.2,0,22.8,0c0.5,0,1,0,1.8,0c-0.4,0.7-0.7,1.1-0.9,1.5
		c-14.7,21.3-29.3,42.6-44,63.9c-1.9,2.8-4.1,5.4-7,7.3c-8.7,5.6-20.6,0.2-21.9-10.1c0-0.4,0-0.7,0-1.1c0-20,0-40,0-60
		c0-0.5,0-1,0-1.6C213.7,51.2,221.6,51.2,229.7,51.2z"/>
	<path class="st0" d="M306,51.3c-0.6,1.7-1.3,3.2-1.9,4.8c-9,22.8-18,45.5-26.9,68.3c-0.3,0.8-0.5,1.4-1.6,1.4c-7.1,0-14.2,0-21.3,0
		c-0.3,0-0.6-0.1-1.1-0.1c0.2-0.5,0.3-0.9,0.5-1.4c10-24,20-48,30-72c0.3-0.6,0.5-1.1,1.3-1.1c6.8,0,13.5,0,20.3,0
		C305.5,51.1,305.6,51.2,306,51.3z"/>
	<path class="st0" d="M351.2,132.9c-0.7,1.7-1.3,3.2-1.9,4.7c-2.1,5.4-4.3,10.8-6.4,16.2c-0.4,0.9-0.9,1.2-1.8,1.2
		c-22,0-43.9,0-65.9,0c-0.4,0-0.7-0.1-1.3-0.1c0.2-0.6,0.3-1,0.5-1.5c2.5-6.4,5.1-12.8,7.6-19.2c0.4-1,0.9-1.4,2-1.4
		c21.9,0,43.7,0,65.6,0C350.1,132.8,350.5,132.9,351.2,132.9z"/>
	<path class="st0" d="M84.4,22.9c-0.9,2.5-1.8,4.8-2.6,7c-3.5,9.5-7,18.9-10.4,28.4c-0.4,1-0.8,1.4-2,1.4c-9.1-0.1-18.3,0-27.4,0
		c-0.4,0-0.8,0-1.5,0c0.2-0.7,0.3-1.2,0.5-1.7c4.6-11.2,9.2-22.4,13.7-33.7c0.5-1.1,1-1.5,2.2-1.5c8.5,0.1,17,0,25.5,0
		C83.1,22.9,83.6,22.9,84.4,22.9z"/>
	<path class="st0" d="M286.5,44.1c1.2-2.9,2.3-5.7,3.4-8.4c1.7-4.1,3.3-8.2,5-12.3c0.3-0.6,0.5-1.1,1.3-1.1c7,0,13.9,0,20.9,0
		c0.1,0,0.2,0.1,0.4,0.1c-0.1,0.3-0.1,0.7-0.3,1c-2.8,6.6-5.6,13.2-8.4,19.8c-0.3,0.6-0.6,1.1-1.4,1.1c-6.7,0-13.3,0-20,0
		C287.2,44.3,286.9,44.2,286.5,44.1z"/>
	<path class="st0" d="M160.3,153.4c1.1-2.8,2.1-5.5,3.2-8.3c1.4-3.7,2.9-7.4,4.3-11.2c0.4-1.1,0.9-1.4,2-1.4c2.3,0.1,4.6,0,6.9,0.1
		c3.5,0.2,5.6,2.4,5.7,5.8c0.2,6.7-4.5,13.5-10.6,14.7c-3.7,0.7-7.5,0.5-11.2,0.7C160.4,153.7,160.3,153.6,160.3,153.4z
		 M164.2,151.3c2.8-0.3,5.4-0.2,7.8-0.9c4.5-1.2,7.8-7.8,7.2-12.3c-0.3-1.9-1.4-2.8-3.3-3c-1.5-0.1-3-0.1-4.5-0.1
		c-0.9,0-1.2,0.4-1.5,1.1c-1.7,4.5-3.5,9-5.2,13.5C164.5,150.1,164.4,150.5,164.2,151.3z"/>
	<path class="st0" d="M242.8,140.4c1.2-2.3,1.2-2.3,3.2-1.9c-0.1,0.3-0.1,0.6-0.2,0.9c-1.9,4.9-3.7,9.8-5.7,14.7
		c-1.9,4.7-5.7,6.6-10.2,5.5c-1.8-0.5-2.7-1.5-2.7-3.1c-0.1-1.2,0.4-1.7,1.7-1.4c0.3,0.1,0.6,0.1,0.7,0.4c0.6,0.6,1.1,1.7,1.8,1.8
		c1.7,0.4,3.6,0.4,4.9-1.3c0.8-1.1,1.4-2.5,2.2-4c-1.3,0.6-2.2,1.1-3.1,1.4c-3.1,0.9-5.7-0.9-6-4.2c-0.3-4.6,3.6-10,8-11.1
		C239.5,137.6,241.4,138.2,242.8,140.4z M241.2,144c0-3.2-2.1-4.5-4.5-3.3c-2.9,1.5-4.2,4.1-4.6,7.2c-0.4,2.8,1.7,4.2,4.2,3
		C239.5,149.4,240.7,146.6,241.2,144z"/>
	<path class="st0" d="M76,153.5c1.2-3.2,2.4-6.3,3.7-9.7c-3.6,0-6.9,0-10.3,0c-0.3,0-0.8,0.6-1,1c-0.9,2.2-1.8,4.5-2.6,6.8
		c-0.9,2.3-0.9,2.3-3.6,2c0.2-0.5,0.3-1.1,0.5-1.5c2.3-5.9,4.5-11.7,6.8-17.6c0.8-2.2,1-2.2,3.5-1.7c-1.1,2.8-2.1,5.5-3.2,8.5
		c3.6,0,7,0,10.3,0c0.3,0,0.7-0.5,0.9-0.9c0.8-2,1.6-4,2.3-6c0.8-2,1.1-2.2,3.5-1.6c-0.7,1.9-1.4,3.7-2.1,5.6
		c-1.7,4.5-3.5,9-5.2,13.5C78.7,153.9,78.5,154,76,153.5z"/>
	<path class="st0" d="M121.9,153.7c1.3-3.3,2.5-6.4,3.6-9.4c0.2-0.4,0.4-0.9,0.5-1.3c0.1-0.8,0.4-2,0-2.3c-0.5-0.4-1.7-0.4-2.4-0.3
		c-2.1,0.5-3.5,2-4.3,3.9c-1.1,2.5-2.1,5.1-3.1,7.6c-0.8,1.9-0.9,2-3.2,1.5c1.2-3.2,2.5-6.4,3.7-9.6c0.2-0.4,0.4-0.9,0.5-1.3
		c0-0.6,0.2-1.5-0.2-1.9c-0.4-0.4-1.3-0.4-1.9-0.3c-2.2,0.6-3.8,2.1-4.8,4.2c-1,2.4-2,4.8-2.9,7.2c-0.8,2.1-0.8,2.1-3.3,1.7
		c0.8-2.1,1.6-4.2,2.4-6.2c1-2.5,1.9-5,2.9-7.4c0.7-1.8,1-1.9,3.1-1.4c-0.1,0.5-0.3,0.9-0.5,1.7c3-1.8,6-4.2,8.5,0
		c1.5-0.7,3-1.7,4.6-2.1c3.3-0.8,5.1,1.1,4,4.3c-1.2,3.5-2.7,7-4,10.4C124.4,154.3,123.2,153.5,121.9,153.7z"/>
	<path class="st0" d="M145.3,148.7c-1.1,4-7.2,6.6-10.7,4.7c-1.5-0.8-2.2-2.1-2.3-3.8c-0.4-5.1,3.8-10.6,8.8-11.5
		c4.1-0.8,6.7,1.7,6.1,5.8c0,0.3,0,0.6-0.1,0.8c-0.3,2-0.4,2-2.4,2c-2.8,0-5.5,0-8.3,0c-0.9,0-1.3,0.2-1.4,1.2c-0.2,1.3,0,2.4,1,3.3
		c1,0.9,2.3,0.8,3.4,0.2c0.9-0.4,1.9-1,2.5-1.7C142.9,148.4,143.9,148.3,145.3,148.7z M136.6,144.5c2.5,0,4.9,0,7.4,0
		c0.2,0,0.6-0.3,0.7-0.6c0.7-1.8-0.5-3.6-2.4-3.6C139.8,140.1,137.4,141.9,136.6,144.5z"/>
	<path class="st0" d="M198,148.7c-0.3,0.5-0.4,0.9-0.7,1.3c-1.5,1.9-3.4,3.3-5.8,3.9c-4.1,0.9-6.9-1.4-6.6-5.6
		c0.3-4.8,4.2-9.3,8.8-10.1c3.9-0.7,6.4,1.5,6.2,5.4c0,0.2,0,0.5-0.1,0.7c-0.3,2.5-0.4,2.6-2.9,2.6c-2.7,0-5.3,0-8,0
		c-0.9,0-1.3,0.3-1.4,1.1c-0.1,1.2-0.1,2.4,0.9,3.3c1.1,0.9,2.3,0.8,3.4,0.3c0.9-0.5,2-1,2.6-1.8C195.5,148.3,196.6,148.4,198,148.7
		z M189.2,144.5c2.5,0,4.9,0,7.3,0c0.3,0,0.6-0.2,0.7-0.5c0.7-1.6-0.4-3.5-2-3.7C192.7,139.9,189.9,141.8,189.2,144.5z"/>
	<path class="st0" d="M395.4,27c5.9,0,10.5,4.7,10.5,10.6c0,5.8-4.8,10.6-10.6,10.5c-5.8,0-10.5-4.8-10.5-10.7
		C384.8,31.6,389.5,27,395.4,27z M404.2,37.6c0-5-3.9-9-8.8-8.9c-4.9,0-8.8,3.9-8.8,8.8c0,4.8,3.9,8.8,8.6,8.8
		C400.2,46.4,404.1,42.6,404.2,37.6z"/>
	<path class="st0" d="M92.4,154c-4.2,0-6.2-2.5-5.5-6.2c0.8-4.2,2.8-7.5,6.9-9.2c1.3-0.5,2.9-0.6,4.3-0.5c2.7,0.3,4.1,2.2,4.1,4.9
		c-0.1,4.9-3.7,9.6-8.4,10.8C93.2,153.9,92.6,154,92.4,154z M89.6,148.1c0,2.8,1.4,4,3.6,3.5c3.5-0.7,6.9-6.1,6-9.6
		c-0.3-1.1-1-1.9-2.2-1.8c-1.1,0-2.3,0.2-3.2,0.7C91.1,142.7,90,145.5,89.6,148.1z"/>
	<path class="st0" d="M246.5,153.5c0.2-0.5,0.3-1,0.5-1.4c1.5-4,3.1-8.1,4.7-12.1c0.7-1.9,0.8-1.9,3-1.5c-0.1,0.3-0.2,0.7-0.3,1
		s-0.2,0.6-0.2,0.7c1.6-0.7,3.2-1.7,4.9-2.1c3.1-0.8,5.2,1.3,4.1,4.3c-1.2,3.6-2.7,7-4.1,10.5c-0.6,1.4-1.7,0.6-2.9,0.8
		c0.3-0.7,0.4-1.3,0.7-1.8c1.2-2.9,2.4-5.8,3.4-8.7c0.3-0.8,0.4-2.1,0-2.4c-0.7-0.5-1.8-0.6-2.7-0.4c-2.2,0.5-3.8,2-4.7,4
		c-1.1,2.4-2.1,5-3.1,7.5C248.9,154,248.9,154,246.5,153.5z"/>
	<path class="st0" d="M215.4,143.1c-0.6-2.8-2.7-3.8-4.9-2.7c-0.6,0.3-1.2,1.1-1.3,1.7c-0.1,0.4,0.6,1.2,1.1,1.5
		c1.1,0.7,2.3,1.2,3.4,1.8c2,1.2,2.5,3.1,1.3,5.2c-1.9,3.4-7.9,4.5-10.8,1.9c-1-0.8-1.5-2.7-1-3.8c0.1-0.2,0.4-0.5,0.7-0.5
		c0.6-0.1,1.2,0,1.8,0c0.6,3.3,2.6,4.5,5.3,3.2c0.8-0.4,1.6-1.3,1.7-2.1c0.1-0.5-0.8-1.4-1.4-1.9c-0.8-0.6-1.9-1-2.8-1.5
		c-2.3-1.2-2.7-3.6-1.1-5.6c1.9-2.4,6-3.2,8.6-1.7c0.5,0.3,1.2,0.8,1.4,1.3c0.3,0.8,0.6,1.9,0.3,2.6
		C217.4,143,216.1,143,215.4,143.1z"/>
	<path class="st0" d="M219,153.5c1.2-3.2,2.4-6.3,3.6-9.3c0.6-1.5,1.1-2.9,1.7-4.4c0.7-1.7,1.1-1.8,3.1-1.2
		c-0.2,0.5-0.3,0.9-0.5,1.4c-1.5,3.9-3,7.9-4.6,11.8C221.5,153.9,221.5,153.9,219,153.5z"/>
	<path class="st0" d="M226.2,135.3c0.3-2.7,0.8-3.1,3.3-2.7C229.2,135.4,228.6,135.8,226.2,135.3z"/>
	<path class="st0" d="M398.1,38.4c1,1.5,1.9,2.8,2.9,4.3c-1.2,0.4-2,0.3-2.5-0.8c-0.4-0.8-0.9-1.7-1.6-2.3c-0.5-0.5-1.3-0.8-2-1
		c-0.8-0.2-1.2,0.2-1.2,1.1c0,1,0,2,0,3.1c-0.6,0-1,0-1.5,0c0-3.3,0-6.5,0-9.8c1.9,0,3.8-0.1,5.7,0c1.2,0.1,2,0.8,2.2,2
		c0.2,1.3-0.1,2.3-1.3,3C398.6,38.1,398.3,38.3,398.1,38.4z M395.7,37.1c0.5,0,1.1,0.2,1.5,0c0.5-0.3,1.1-0.8,1.2-1.4
		c0.1-0.4-0.6-1.1-1.1-1.3c-0.6-0.3-1.4-0.1-2.1-0.2c-1.2-0.2-1.5,0.3-1.6,1.5C393.6,37.4,394.7,37.1,395.7,37.1z"/>
</g>
</svg>
